<?xml version="1.0" encoding="UTF-8" standalone="no"?>
<svg
   xmlns:dc="http://purl.org/dc/elements/1.1/"
   xmlns:cc="http://creativecommons.org/ns#"
   xmlns:rdf="http://www.w3.org/1999/02/22-rdf-syntax-ns#"
   xmlns:svg="http://www.w3.org/2000/svg"
   xmlns="http://www.w3.org/2000/svg"
   xmlns:xlink="http://www.w3.org/1999/xlink"
   xmlns:sodipodi="http://sodipodi.sourceforge.net/DTD/sodipodi-0.dtd"
   xmlns:inkscape="http://www.inkscape.org/namespaces/inkscape"
   viewBox="0 0 512 512"
   version="1.1"
   id="svg1"
   sodipodi:docname="myIcon.svg"
   inkscape:version="0.92.4 (5da689c313, 2019-01-14)">
  <metadata
     id="metadata6">
    <rdf:RDF>
      <cc:Work
         rdf:about="">
        <dc:format>image/svg+xml</dc:format>
        <dc:type
           rdf:resource="http://purl.org/dc/dcmitype/StillImage" />
        <dc:title></dc:title>
      </cc:Work>
    </rdf:RDF>
  </metadata>
  <defs
     id="defs1">
    <linearGradient
       id="linearGradient69056"
       x1="27.243999"
       x2="22.243999"
       y1="54.588001"
       y2="40.588001"
       gradientTransform="translate(-1.2435,-2.5881)"
       gradientUnits="userSpaceOnUse">
      <stop
         stop-color="#c4a000"
         offset="0"
         id="stop14" />
      <stop
         stop-color="#fce94f"
         offset="1"
         id="stop16" />
    </linearGradient>
    <linearGradient
       id="linearGradient4399"
       x1="48.714001"
       x2="44.714001"
       y1="45.585999"
       y2="34.585999"
       gradientTransform="translate(1.2856,1.4142)"
       gradientUnits="userSpaceOnUse">
      <stop
         stop-color="#c4a000"
         offset="0"
         id="stop8" />
      <stop
         stop-color="#edd400"
         offset="1"
         id="stop10" />
    </linearGradient>
    <linearGradient
       inkscape:collect="always"
       xlink:href="#linearGradient69056"
       id="linearGradient920"
       gradientUnits="userSpaceOnUse"
       gradientTransform="matrix(8.347339,0,0,7.2871315,-8.9681537,4.2688648)"
       x1="20.243999"
       y1="37.588001"
       x2="17.243999"
       y2="27.587999" />
    <linearGradient
       inkscape:collect="always"
       xlink:href="#linearGradient73208"
       id="linearGradient69042-3"
       gradientUnits="userSpaceOnUse"
       gradientTransform="matrix(8.347339,0,0,7.2871315,-104.71922,-105.02121)"
       x1="48.714352"
       y1="45.585785"
       x2="46.714352"
       y2="35.585785" />
    <linearGradient
       inkscape:collect="always"
       id="linearGradient73208">
      <stop
         style="stop-color:#c4a000;stop-opacity:1"
         offset="0"
         id="stop73210" />
      <stop
         style="stop-color:#edd400;stop-opacity:1"
         offset="1"
         id="stop73212" />
    </linearGradient>
    <linearGradient
       y2="40.588001"
       x2="22.243999"
       y1="54.588001"
       x1="27.243999"
       gradientTransform="translate(-1.2435,-2.5881)"
       gradientUnits="userSpaceOnUse"
       id="linearGradient89"
       xlink:href="#linearGradient69056"
       inkscape:collect="always" />
  </defs>
  <sodipodi:namedview
     id="namedview1"
     pagecolor="#ffffff"
     bordercolor="#000000"
     borderopacity="0.25"
     inkscape:showpageshadow="2"
     inkscape:pageopacity="0.0"
     inkscape:pagecheckerboard="0"
     inkscape:deskcolor="#d1d1d1"
     inkscape:zoom="1.234375"
     inkscape:cx="257.62025"
     inkscape:cy="256"
     inkscape:window-width="1918"
     inkscape:window-height="1035"
     inkscape:window-x="2"
     inkscape:window-y="0"
     inkscape:window-maximized="1"
     inkscape:current-layer="svg1"
     showgrid="false" />
  <!--!Font Awesome Free 6.5.2 by @fontawesome - https://fontawesome.com License - https://fontawesome.com/license/free Copyright 2024 Fonticons, Inc.-->
  <path
     d="M352 96c0 14.3-3.1 27.9-8.8 40.2L396 227.4c-23.7 25.3-54.2 44.1-88.5 53.6L256 192h0 0l-68 117.5c21.5 6.8 44.3 10.5 68.1 10.5c70.7 0 133.8-32.7 174.9-84c11.1-13.8 31.2-16 45-5s16 31.2 5 45C428.1 341.8 347 384 256 384c-35.4 0-69.4-6.4-100.7-18.1L98.7 463.7C94 471.8 87 478.4 78.6 482.6L23.2 510.3c-5 2.5-10.9 2.2-15.6-.7S0 501.5 0 496V440.6c0-8.4 2.2-16.7 6.5-24.1l60-103.7C53.7 301.6 41.8 289.3 31.2 276c-11.1-13.8-8.8-33.9 5-45s33.9-8.8 45 5c5.7 7.1 11.8 13.8 18.2 20.1l69.4-119.9c-5.6-12.2-8.8-25.8-8.8-40.2c0-53 43-96 96-96s96 43 96 96zm21 297.9c32.6-12.8 62.5-30.8 88.9-52.9l43.7 75.5c4.2 7.3 6.5 15.6 6.5 24.1V496c0 5.5-2.9 10.7-7.6 13.6s-10.6 3.2-15.6 .7l-55.4-27.7c-8.4-4.2-15.4-10.8-20.1-18.9L373 393.9zM256 128a32 32 0 1 0 0-64 32 32 0 1 0 0 64z"
     id="path1"
     style="fill:#00ffff" />
  <g
     transform="matrix(8.3473389,0,0,7.2871315,1.4117629,23.128685)"
     id="g40"
     style="stroke-width:2">
    <path
       d="M 9,49 V 35 l 28,10 v 14 z"
       id="path30"
       style="fill:url(#linearGradient89);stroke:#302b00;stroke-linejoin:round"
       inkscape:connector-curvature="0" />
    <path
       d="M 37,59 V 45 L 55,28 v 13 z"
       id="path32"
       style="fill:url(#linearGradient4399);stroke:#302b00;stroke-linejoin:round"
       inkscape:connector-curvature="0" />
    <path
       d="M 11.008,47.606 11,37.9997 l 24,8 0.0081,10.185 z"
       id="path34"
       inkscape:connector-curvature="0"
       style="fill:none;stroke:#fce94f" />
    <path
       d="M 39.005,54.168 39,45.9998 l 14,-13 0.0021,7.1768 z"
       id="path36"
       inkscape:connector-curvature="0"
       style="fill:none;stroke:#edd400" />
    <path
       d="M 23,40 42,23 55,28 37,45 Z"
       id="path38"
       inkscape:connector-curvature="0"
       style="fill:#fce94f;stroke:#302b00;stroke-linejoin:round" />
  </g>
  <path
     d="M 76.537813,278.17829 V 176.15845 L 193.40056,212.5941 v 102.01984 z"
     id="path912"
     style="fill:url(#linearGradient920);fill-opacity:1;stroke:#172a04;stroke-width:15.59848118;stroke-linejoin:round"
     inkscape:connector-curvature="0" />
  <path
     d="M 76.537813,176.15845 240.02045,61.087353 352,96.000729 193.40056,212.59483 Z"
     id="path914"
     inkscape:connector-curvature="0"
     style="fill:#fce94f;fill-opacity:1;stroke:#172a04;stroke-width:15.59848118;stroke-linejoin:round;stroke-opacity:1" />
  <path
     style="fill:none;stroke:#fce94f;stroke-width:15.59848118;stroke-opacity:1"
     inkscape:connector-curvature="0"
     id="path52"
     d="m 92.823472,269.04023 0.726219,-72.72266 83.112779,25.67183 -0.17613,72.58931 z" />
  <path
     sodipodi:nodetypes="ccccc"
     inkscape:connector-curvature="0"
     id="path69040"
     d="M 193.40056,314.61394 V 212.5941 L 352,96 v 94.73271 z"
     style="fill:url(#linearGradient69042-3);fill-opacity:1;fill-rule:nonzero;stroke:#302b00;stroke-width:15.59848118;stroke-linejoin:round;stroke-miterlimit:4;stroke-dasharray:none" />
  <path
     sodipodi:nodetypes="ccccc"
     inkscape:connector-curvature="0"
     id="path69044-6"
     d="m 210.09524,285.46541 v -65.58417 l 125.21008,-94.73272 v 58.29705 z"
     style="fill:none;stroke:#edd400;stroke-width:15.59848118;stroke-linejoin:miter;stroke-miterlimit:4;stroke-dasharray:none" />
</svg>
